# xmcd
#
# Track frame offsets: 
#        150
#        19623
#        33660
#        48323
#        66526
#        79932
#        90443
#        104337
#        123200
#        137296
#        160805
#        181300
#        194908
#        195836
#
# Disc length: 2848 seconds
#
# Revision: 0
# Processed by: cddbd v1.5.2PL0 Copyright (c) Steve Scherf et al.
# Submitted via: ExactAudioCopy v0.99pb5
#
DISCID=b60b1e0e
DTITLE=Jim Paul Blair - Fresh Off The Strings
DYEAR=2003
DGENRE=Bluegrass
TTITLE0=Lonesome Fugitive
TTITLE1=That's How I Got to Memphis
TTITLE2=Here She Comes
TTITLE3=A Face in the Crowd
TTITLE4=Fresh Off The Strings
TTITLE5=I Don't Know A Thing About Love
TTITLE6=Stupid Cupid
TTITLE7=Can't You Hear Me Callin'
TTITLE8=Gonna Buy Me A Dog
TTITLE9=Old Flames Can't Hold A Candle to You
TTITLE10=Lady Be Good
TTITLE11=Some Kind of Wonderful
TTITLE12=[silent gap]
TTITLE13=Faded Love
EXTD=
EXTT0=
EXTT1=
EXTT2=
EXTT3=
EXTT4=
EXTT5=
EXTT6=
EXTT7=
EXTT8=
EXTT9=
EXTT10=
EXTT11=
EXTT12=
EXTT13=
PLAYORDER=
